<mxfile host="app.diagrams.net" modified="2024-11-04T03:56:33.560Z" agent="Mozilla/5.0 (X11; Linux x86_64) AppleWebKit/537.36 (KHTML, like Gecko) Chrome/129.0.0.0 Safari/537.36" version="24.6.4" etag="aOdkPuCv5DvylCarOeIX" type="github">
  <diagram name="Page-1" id="I-_Ee-96H7XLc6qtkNM8">
    <mxGraphModel>
      <root>
        <mxCell id="0" />
        <mxCell id="1" parent="0" />
      </root>
    </mxGraphModel>
  </diagram>
</mxfile>
